<?xml version="1.0" standalone="no"?>
<!DOCTYPE svg PUBLIC "-//W3C//DTD SVG 20010904//EN"
 "http://www.w3.org/TR/2001/REC-SVG-20010904/DTD/svg10.dtd">
<svg version="1.0" xmlns="http://www.w3.org/2000/svg"
 width="600.000000pt" height="600.000000pt" viewBox="0 0 600.000000 600.000000"
 preserveAspectRatio="xMidYMid meet">
<metadata>
Created by potrace 1.11, written by Peter Selinger 2001-2013
</metadata>
<g transform="translate(0.000000,600.000000) scale(0.100000,-0.100000)"
fill="#000000" stroke="none">
<path d="M2996 5687 c-61 -34 -81 -77 -81 -171 l0 -80 -76 -16 c-41 -9 -95
-26 -120 -38 -55 -26 -82 -36 -91 -34 -4 1 -5 -5 -2 -13 4 -8 1 -15 -5 -15 -6
0 -11 4 -11 9 0 5 -15 1 -34 -8 -18 -9 -32 -19 -30 -22 5 -9 -56 -20 -67 -13
-5 3 -9 0 -9 -5 0 -14 -74 -61 -95 -61 -9 0 -13 -4 -10 -10 3 -5 -1 -10 -9
-10 -9 0 -16 -4 -16 -10 0 -5 -5 -10 -10 -10 -14 0 -117 -84 -156 -126 -17
-19 -36 -34 -42 -34 -7 0 -12 -7 -12 -15 0 -8 -4 -15 -10 -15 -5 0 -10 -7 -10
-16 0 -8 -4 -13 -9 -10 -5 3 -20 -12 -35 -34 -14 -22 -23 -40 -20 -40 4 0 -5
-15 -18 -32 -27 -36 -75 -133 -108 -217 -11 -29 -34 -73 -50 -96 -17 -24 -30
-50 -30 -57 0 -8 -4 -18 -9 -23 -12 -13 -20 -84 -27 -247 l-6 -138 -80 75
c-81 76 -118 93 -118 54 0 -11 5 -17 10 -14 6 3 10 0 10 -8 0 -23 83 -130 165
-215 l75 -76 0 84 c1 106 7 115 125 174 73 36 113 49 205 64 177 31 392 46
440 32 21 -6 28 -5 24 2 -4 7 5 8 27 3 19 -4 76 -9 127 -10 50 -1 93 -6 94
-11 1 -5 -7 -11 -18 -13 -10 -2 -26 -12 -35 -22 -9 -11 -21 -19 -27 -19 -5 0
-13 -7 -16 -16 -9 -22 -7 -31 2 -16 6 8 9 2 9 -18 0 -18 -5 -30 -14 -30 -7 0
-13 7 -13 16 0 8 -5 12 -11 8 -8 -4 -8 -9 0 -17 18 -18 13 -24 -20 -24 -27 0
-30 3 -24 25 l6 24 -26 -26 c-25 -25 -41 -30 -75 -27 -12 2 -12 0 -2 -7 24
-16 9 -45 -28 -55 -23 -6 -36 -5 -38 2 -2 6 -8 9 -13 5 -21 -13 5 -24 57 -24
30 0 54 -3 54 -6 0 -14 -32 -35 -46 -30 -8 3 -13 2 -10 -3 3 -5 -4 -11 -17
-15 -12 -3 -24 -1 -25 4 -5 14 -22 2 -22 -16 0 -8 9 -14 20 -14 17 0 20 -7 20
-39 0 -31 -4 -40 -22 -45 l-23 -7 23 -11 c24 -12 32 -44 8 -35 -9 4 -12 0 -9
-12 4 -16 27 -32 66 -47 9 -3 17 -10 17 -15 0 -7 57 -96 70 -109 12 -12 30
-51 30 -65 0 -8 -6 -15 -12 -15 -8 -1 -5 -6 6 -15 28 -22 11 -33 -44 -27 -28
2 -50 0 -50 -5 0 -5 -57 -10 -127 -12 -70 -1 -135 -7 -146 -12 -13 -7 -49 -6
-120 6 -182 29 -178 28 -171 12 3 -10 28 -16 77 -20 40 -3 151 -22 247 -41 96
-20 184 -36 195 -36 15 0 25 -11 34 -36 7 -20 26 -43 43 -54 l30 -18 -68 -33
c-66 -32 -74 -33 -189 -33 -66 -1 -133 3 -150 7 l-30 7 30 -17 c24 -14 54 -18
155 -18 103 0 122 -2 103 -12 -45 -23 -166 -37 -241 -27 -39 6 -69 7 -66 3 15
-24 209 -19 323 8 38 9 17 -14 -45 -49 -30 -17 -53 -33 -50 -36 13 -13 136 62
189 115 l59 58 121 1 c67 1 139 4 160 9 30 6 37 4 37 -9 0 -8 10 -18 23 -21
12 -3 33 -22 46 -41 29 -42 109 -114 126 -114 7 0 26 -7 43 -16 17 -8 60 -20
94 -25 35 -6 75 -14 91 -19 16 -5 27 -5 27 1 0 5 5 9 11 9 8 0 7 -5 -1 -15
-17 -21 -248 -15 -282 7 -31 19 -117 14 -192 -12 -47 -16 -61 -17 -68 -8 -6
11 -11 10 -28 0 -11 -7 -25 -10 -30 -7 -5 3 -37 -3 -70 -14 -39 -13 -101 -22
-178 -26 -137 -6 -180 -13 -207 -31 -25 -18 -35 -18 -35 1 0 10 -7 7 -25 -10
-22 -20 -35 -23 -90 -22 -37 1 -63 -2 -62 -8 1 -5 -14 -9 -34 -8 -29 2 -36 -1
-35 -15 3 -37 99 -92 186 -107 25 -4 61 -16 80 -26 22 -12 55 -19 93 -19 38 0
71 -7 97 -20 32 -16 44 -18 70 -9 55 20 135 7 180 -30 l40 -32 38 25 c60 38
116 50 171 36 38 -9 54 -8 91 5 25 9 86 19 135 22 50 3 110 11 133 19 24 8 84
17 133 21 49 3 89 10 89 14 0 5 9 9 20 9 11 0 20 6 20 14 0 8 16 17 37 21 47
9 75 23 68 35 -3 5 4 14 16 21 14 7 18 14 10 18 -7 5 -2 16 16 33 23 21 43 28
120 36 64 8 107 19 145 38 29 15 47 29 40 32 -10 3 -10 7 -1 19 10 12 10 16
-1 23 -8 5 -11 12 -8 16 4 4 -11 20 -32 35 -22 16 -40 36 -40 44 0 8 -9 19
-20 25 -13 7 -20 21 -20 41 0 20 4 28 12 23 8 -5 9 0 5 17 -4 13 -7 40 -8 59
-1 20 -3 27 -6 15 -13 -56 -106 -294 -131 -332 -18 -29 -52 -40 -66 -21 -6 8
-20 14 -31 12 -10 -2 -25 2 -32 7 -17 15 -11 74 10 97 16 18 16 20 2 26 -9 3
-28 6 -41 6 -13 0 -24 4 -24 8 0 5 18 8 41 8 40 -1 40 -1 18 17 -18 14 -19 17
-4 17 13 0 16 7 13 30 -3 17 0 30 5 30 5 0 7 7 4 14 -4 10 -1 13 9 9 14 -5 16
3 18 67 1 15 7 25 16 25 11 0 14 10 12 37 -2 20 1 39 7 43 16 9 13 45 -4 51
-10 4 -12 15 -9 34 4 15 1 31 -5 34 -6 4 -11 1 -11 -7 0 -8 -8 -23 -18 -35
-17 -19 -25 -21 -93 -15 -74 6 -115 25 -82 37 9 4 18 4 21 1 3 -3 -1 -5 -9 -5
-11 0 -11 -2 1 -10 8 -5 22 -9 30 -9 11 0 11 2 2 6 -9 4 -10 8 -2 18 8 10 7
22 -5 45 -9 17 -13 35 -10 40 3 6 -1 7 -9 4 -9 -3 -16 -1 -16 5 0 6 -7 11 -15
11 -8 0 -15 5 -15 10 0 6 -11 10 -25 10 -18 0 -25 5 -25 20 0 11 6 20 13 20 7
0 19 -9 27 -20 8 -11 20 -20 27 -20 7 0 13 9 13 20 0 15 7 20 27 20 21 0 24 3
15 12 -10 10 -17 10 -32 0 -29 -18 -50 -15 -50 8 0 13 7 20 20 20 13 0 20 7
20 20 0 18 3 19 21 9 12 -6 30 -8 41 -6 24 7 84 -49 94 -87 3 -14 10 -26 15
-26 5 0 9 -13 9 -30 0 -16 4 -30 9 -30 17 0 19 42 3 70 -17 29 -9 57 8 30 13
-22 17 -10 12 43 -3 32 -9 47 -18 47 -9 0 -14 11 -14 30 0 17 -4 30 -10 30 -5
0 -10 5 -10 10 0 6 8 10 19 10 17 0 18 8 17 80 -2 78 -1 79 24 83 20 3 16 5
-17 12 -24 4 -43 13 -43 19 0 7 21 20 48 29 61 22 143 14 194 -19 21 -13 41
-24 44 -24 15 0 54 -58 60 -89 7 -33 1 -115 -12 -178 -7 -34 11 -48 22 -18 4
8 20 30 36 48 16 17 53 58 81 90 83 94 141 148 154 143 7 -3 10 1 6 10 -3 8 1
14 10 14 9 0 30 12 48 28 18 15 34 26 36 25 9 -8 33 -1 31 9 -2 6 7 17 20 23
13 7 23 15 23 19 -2 21 1 25 17 20 14 -5 14 -4 -2 7 -24 15 -76 -6 -246 -97
-65 -35 -123 -64 -127 -64 -4 0 -9 77 -9 171 -1 163 -3 172 -27 217 -14 26
-28 59 -31 72 -11 60 -32 132 -64 225 -19 55 -34 111 -34 124 0 17 -2 20 -8
11 -8 -14 -17 5 -24 53 -1 9 -6 20 -11 24 -4 5 -4 1 0 -7 8 -13 7 -13 -9 -1
-10 8 -13 17 -7 20 12 8 -94 147 -110 143 -6 -1 -8 1 -5 6 8 13 -79 93 -170
155 -149 104 -276 156 -491 202 -21 5 -22 9 -16 68 8 85 -23 156 -87 200 -37
26 -134 23 -184 -6z m-115 -798 c121 -41 171 -162 114 -276 -40 -80 -141 -143
-229 -143 -59 0 -141 43 -173 91 -111 168 88 394 288 328z m-424 -135 c-3 -3
-12 -4 -19 -1 -8 3 -5 6 6 6 11 1 17 -2 13 -5z m-62 -14 c-16 -4 -41 -8 -55
-8 l-25 0 25 8 c14 4 39 8 55 8 l30 0 -30 -8z m332 -732 c-3 -7 -5 -2 -5 12 0
14 2 19 5 13 2 -7 2 -19 0 -25z m849 -229 c3 -6 2 -15 -2 -19 -12 -12 -38 5
-30 19 9 14 23 14 32 0z m-207 -18 c7 -5 9 -11 5 -14 -5 -3 -15 1 -22 9 -14
16 -5 18 17 5z m-141 -13 c9 -9 15 -9 24 0 15 15 68 16 68 1 0 -5 5 -7 10 -4
6 3 10 -3 10 -14 0 -12 6 -20 13 -18 6 1 11 -6 9 -15 -3 -20 18 -24 35 -7 8 8
13 8 17 0 4 -6 0 -11 -8 -11 -12 0 -16 -10 -16 -40 0 -29 -4 -40 -15 -40 -8 0
-15 7 -15 15 0 8 -9 15 -20 15 -23 0 -27 -25 -5 -34 33 -12 15 -34 -35 -41
-27 -4 -61 -16 -75 -27 -24 -18 -25 -18 -26 -1 0 14 -2 13 -9 -5 -6 -13 -15
-22 -22 -21 -30 4 -48 -2 -48 -14 0 -8 -19 -19 -41 -26 -41 -12 -42 -24 -4
-35 12 -3 9 -4 -7 -2 -16 2 -28 0 -28 -3 0 -15 -69 -32 -88 -22 -34 18 -46 65
-32 116 16 56 120 170 165 181 17 4 32 10 35 14 5 7 78 46 91 49 3 1 10 -4 17
-11z m278 5 c-10 -10 -46 -11 -46 -1 0 4 12 8 27 8 14 0 23 -3 19 -7z m74 -48
c0 -15 -6 -25 -15 -25 -12 0 -13 4 -3 25 6 14 13 25 15 25 1 0 3 -11 3 -25z
m-60 -15 c0 -5 -7 -10 -15 -10 -8 0 -15 5 -15 10 0 6 7 10 15 10 8 0 15 -4 15
-10z m-75 -100 c7 -12 -2 -12 -30 0 -19 8 -19 9 2 9 12 1 25 -3 28 -9z m-998
-156 c-3 -3 -12 -4 -19 -1 -8 3 -5 6 6 6 11 1 17 -2 13 -5z m1203 -51 c0 -49
12 -67 40 -60 16 4 20 2 16 -10 -24 -61 -107 -112 -227 -140 -84 -19 -198 -8
-294 28 -64 23 -161 107 -153 131 5 15 70 29 263 57 171 25 191 27 283 29 l72
2 0 -37z m-442 -249 c15 -3 34 -11 42 -18 17 -14 70 -32 120 -40 20 -3 87 1
150 9 76 10 117 12 124 5 7 -7 -2 -10 -27 -10 -20 0 -37 -4 -37 -10 0 -5 5
-10 10 -10 7 0 6 -5 -1 -12 -7 -9 -38 -13 -88 -12 -119 2 -182 13 -236 41 -27
15 -60 31 -72 37 -13 6 -25 17 -28 24 -2 7 0 10 5 7 6 -4 23 -9 38 -11z m153
-6 c3 -5 12 -6 20 -4 8 3 43 7 79 9 36 2 57 2 47 0 -9 -3 -14 -9 -10 -15 4 -7
0 -9 -10 -5 -10 4 -17 2 -17 -4 0 -15 -130 -1 -150 16 -8 7 -22 15 -30 18 -8
4 3 4 25 0 22 -3 43 -10 46 -15z m829 -102 c0 -2 -7 -7 -16 -10 -8 -3 -12 -2
-9 4 6 10 25 14 25 6z m-115 -56 c15 -7 10 -9 -22 -9 -24 -1 -43 4 -43 9 0 12
37 12 65 0z"/>
<path d="M2760 4822 c-27 -45 -37 -53 -86 -67 -29 -8 -54 -18 -54 -21 0 -2 16
-19 36 -36 36 -31 36 -33 31 -90 -3 -32 -2 -58 3 -58 4 0 29 12 54 26 l47 26
56 -21 c31 -12 58 -20 59 -18 2 2 0 28 -6 57 l-10 54 40 41 c22 22 40 44 40
48 0 4 -19 7 -42 8 -60 1 -75 9 -107 58 l-29 44 -32 -51z"/>
<path d="M3281 3574 c0 -11 3 -14 6 -6 3 7 2 16 -1 19 -3 4 -6 -2 -5 -13z"/>
<path d="M4570 4040 c-14 -11 -29 -20 -33 -20 -5 0 -15 -7 -24 -15 -14 -14
-14 -18 1 -34 18 -19 21 -62 7 -89 -5 -9 -14 -28 -20 -42 -7 -14 -9 -16 -6 -6
5 16 3 17 -10 6 -13 -11 -16 -11 -13 1 2 9 -6 15 -22 16 -14 0 -33 1 -42 2
-21 1 -14 28 14 52 25 23 23 32 -4 18 -29 -15 -80 -70 -118 -128 -32 -48 -37
-65 -17 -58 6 2 11 10 9 16 -1 8 9 11 30 9 27 -2 37 -11 57 -46 20 -38 24 -57
24 -147 0 -61 -5 -117 -13 -136 -29 -76 -54 -129 -61 -129 -3 0 -9 -9 -12 -21
-4 -15 -11 -19 -24 -15 -21 6 -38 -3 -45 -24 -3 -8 -4 6 -4 32 1 25 3 45 6 44
7 -4 34 28 39 45 2 8 4 37 5 64 1 28 4 55 8 60 3 6 3 25 1 43 -4 22 -11 32
-23 32 -10 0 -20 7 -24 15 -3 8 0 15 6 15 15 0 1 13 -17 16 -8 1 -15 -2 -15
-7 0 -5 -4 -9 -10 -9 -5 0 -7 8 -3 18 5 14 3 14 -13 -3 -26 -28 -58 -121 -48
-143 4 -9 6 -21 5 -25 -1 -5 3 -6 9 -2 14 9 32 -43 24 -69 -3 -11 -12 -28 -20
-36 -7 -8 -18 -36 -25 -62 -11 -39 -11 -51 1 -74 18 -33 50 -49 83 -40 19 4
87 88 105 129 2 4 17 22 33 40 16 17 29 43 30 57 0 23 1 23 9 5 9 -20 9 -20 9
0 1 12 10 38 21 60 11 21 23 62 27 89 3 28 13 57 20 65 8 8 12 22 10 32 -3 12
0 16 10 12 9 -4 13 0 11 8 -1 8 10 45 25 82 15 37 29 76 31 85 1 9 6 24 9 32
4 8 15 51 27 94 15 59 17 83 9 93 -15 17 -19 16 -49 -7z m-330 -744 c0 -3 -4
-8 -10 -11 -5 -3 -10 -1 -10 4 0 6 5 11 10 11 6 0 10 -2 10 -4z m50 -30 c0 -3
-4 -8 -10 -11 -5 -3 -10 -1 -10 4 0 6 5 11 10 11 6 0 10 -2 10 -4z"/>
<path d="M1611 3968 c1 -80 17 -118 18 -46 1 35 7 62 16 71 13 13 13 16 -1 21
-30 11 -34 6 -33 -46z"/>
<path d="M4455 3960 c-3 -5 -2 -10 4 -10 5 0 13 5 16 10 3 6 2 10 -4 10 -5 0
-13 -4 -16 -10z"/>
<path d="M2510 3875 c0 -20 5 -25 25 -25 20 0 25 5 25 25 0 20 -5 25 -25 25
-20 0 -25 -5 -25 -25z"/>
<path d="M1752 3782 c-18 -18 -38 -99 -28 -109 3 -3 15 17 28 43 13 27 33 53
46 59 12 5 22 13 22 17 0 16 -50 8 -68 -10z"/>
<path d="M4161 3694 c0 -11 3 -14 6 -6 3 7 2 16 -1 19 -3 4 -6 -2 -5 -13z"/>
<path d="M4151 3644 c0 -11 3 -14 6 -6 3 7 2 16 -1 19 -3 4 -6 -2 -5 -13z"/>
<path d="M1880 3528 c-12 -13 -20 -35 -20 -56 0 -41 37 -112 59 -112 10 0 7 8
-12 28 -15 15 -27 36 -27 46 0 22 19 58 38 72 16 12 10 44 -7 44 -6 0 -19 -10
-31 -22z"/>
<path d="M2068 3383 c-38 -10 -10 -33 39 -33 19 0 24 4 19 16 -3 9 -6 18 -6
20 0 5 -28 3 -52 -3z"/>
<path d="M4085 3370 c-3 -5 1 -10 10 -10 9 0 13 5 10 10 -3 6 -8 10 -10 10 -2
0 -7 -4 -10 -10z"/>
<path d="M2085 3315 l-30 -25 35 2 c36 3 50 13 50 36 0 19 -22 14 -55 -13z"/>
<path d="M2115 3270 c-16 -16 -26 -33 -22 -36 9 -9 67 35 67 52 0 22 -13 17
-45 -16z"/>
<path d="M1914 3248 c-3 -4 2 -8 10 -8 8 0 17 4 20 8 3 5 -2 9 -10 9 -8 0 -17
-4 -20 -9z"/>
<path d="M2220 3226 c0 -2 7 -7 16 -10 8 -3 12 -2 9 4 -6 10 -25 14 -25 6z"/>
<path d="M1991 3096 c-9 -11 -9 -16 0 -22 7 -4 9 -3 5 4 -3 5 0 12 6 15 7 2
10 7 7 11 -3 4 -12 0 -18 -8z"/>
<path d="M2010 3080 c-8 -15 -18 -19 -38 -15 -23 4 -24 4 -7 -4 11 -5 35 -10
54 -10 26 -1 32 2 27 15 -3 9 -6 20 -6 25 0 16 -19 9 -30 -11z"/>
<path d="M2960 3010 c0 -6 7 -10 15 -10 8 0 15 2 15 4 0 2 -7 6 -15 10 -8 3
-15 1 -15 -4z"/>
<path d="M2198 2863 c7 -3 16 -2 19 1 4 3 -2 6 -13 5 -11 0 -14 -3 -6 -6z"/>
<path d="M4256 2235 c-9 -26 -7 -32 5 -12 6 10 9 21 6 23 -2 3 -7 -2 -11 -11z"/>
<path d="M4199 2179 c-12 -7 -12 -9 0 -9 8 0 12 -3 9 -6 -4 -3 -22 -1 -42 4
-48 14 -69 6 -90 -30 -11 -18 -37 -38 -63 -50 -37 -16 -53 -18 -97 -11 -52 9
-54 9 -84 -23 -52 -54 -163 -70 -258 -38 -43 14 -48 14 -56 0 -20 -35 -98 -69
-172 -74 -68 -4 -73 -3 -125 32 -29 20 -56 36 -60 36 -4 0 -17 -13 -29 -29
l-21 -29 52 -26 c80 -39 182 -121 231 -184 85 -112 123 -214 132 -357 30 -464
-442 -806 -856 -622 -164 74 -302 247 -346 435 -20 85 -20 239 1 317 50 192
187 345 370 410 28 10 54 22 60 27 5 4 24 8 42 8 39 0 40 5 8 45 l-24 30 -38
-37 c-49 -47 -93 -68 -140 -68 -63 0 -113 19 -158 61 l-44 40 -47 -16 c-111
-37 -190 -27 -248 34 -25 26 -32 28 -59 20 -61 -17 -102 -11 -156 25 -30 21
-51 29 -51 22 0 -7 -9 -23 -20 -36 -11 -13 -20 -18 -20 -11 0 9 -5 8 -15 -3
-8 -8 -15 -20 -15 -27 0 -8 -4 -8 -12 -2 -14 10 -52 -20 -41 -31 4 -3 -1 -6
-10 -6 -11 0 -17 -8 -17 -25 0 -14 -6 -28 -14 -31 -22 -8 -39 -59 -31 -96 3
-19 3 -28 -2 -21 -5 8 -14 9 -23 3 -9 -6 -20 -4 -30 3 -13 10 -13 10 -2 -5 8
-9 20 -14 28 -11 9 3 12 0 9 -9 -4 -11 15 -25 65 -49 83 -39 80 -17 27 -219
-49 -189 -117 -508 -117 -551 0 -53 45 -133 103 -184 29 -25 100 -70 158 -100
84 -43 121 -70 185 -132 43 -43 102 -90 131 -105 59 -31 188 -78 214 -78 10 0
21 -9 24 -20 3 -11 14 -20 23 -21 14 0 13 -2 -3 -10 -14 -7 0 -8 45 -5 36 3
57 1 47 -2 -17 -7 -16 -9 5 -29 13 -11 39 -25 58 -31 56 -17 228 -35 320 -34
47 1 219 -3 383 -9 223 -8 317 -7 371 1 71 12 72 12 68 40 -3 23 -15 34 -63
58 l-58 29 62 8 c54 7 58 9 32 15 -16 4 -23 8 -14 9 22 1 58 41 38 41 -8 1 2
9 21 19 19 9 34 22 33 28 -1 6 46 34 104 64 65 33 125 72 154 100 31 30 87 66
153 98 244 120 284 199 223 441 -15 58 -43 178 -62 266 -19 89 -51 211 -70
270 -19 60 -31 110 -27 112 34 13 102 65 96 74 -4 6 -3 8 4 4 6 -3 20 8 33 25
22 31 22 31 1 20 -20 -11 -21 -10 -16 18 5 23 1 35 -20 56 -14 14 -26 31 -26
38 0 7 -9 20 -19 29 -15 12 -19 27 -17 58 2 23 0 36 -4 30 -5 -7 -13 -9 -21
-5 -9 6 -11 4 -6 -8 3 -9 -1 -18 -10 -21 -12 -5 -14 -1 -9 17 4 17 1 23 -12
24 -10 1 -25 -3 -33 -8z m31 -14 c0 -8 -2 -15 -4 -15 -2 0 -6 7 -10 15 -3 8
-1 15 4 15 6 0 10 -7 10 -15z m-2570 -365 c8 -5 12 -11 9 -14 -3 -3 -14 1 -25
9 -21 16 -8 20 16 5z"/>
<path d="M2815 1941 c-3 -5 -2 -12 3 -15 5 -3 9 1 9 9 0 17 -3 19 -12 6z"/>
<path d="M2900 1910 c0 -5 5 -10 11 -10 5 0 7 5 4 10 -3 6 -8 10 -11 10 -2 0
-4 -4 -4 -10z"/>
<path d="M2825 1890 c3 -5 8 -10 11 -10 2 0 4 5 4 10 0 6 -5 10 -11 10 -5 0
-7 -4 -4 -10z"/>
<path d="M2870 1890 c0 -6 4 -10 10 -10 5 0 7 -8 4 -17 -5 -15 -4 -16 5 -3 14
20 14 27 -4 34 -8 3 -15 1 -15 -4z"/>
<path d="M2944 1892 c3 -6 2 -14 -4 -17 -7 -4 -3 -18 10 -39 17 -29 20 -50 20
-166 l0 -132 -41 7 c-39 7 -40 6 -30 -14 6 -11 27 -33 46 -48 l34 -27 -20 -28
c-12 -16 -41 -44 -65 -62 -50 -38 -44 -52 15 -36 49 13 114 60 206 151 54 52
73 66 85 59 20 -13 67 -13 91 0 25 14 26 80 2 102 -10 9 -56 41 -102 73 l-84
56 6 -38 c4 -21 9 -52 13 -70 5 -26 1 -37 -31 -70 l-37 -38 6 124 5 124 -33
31 c-36 33 -103 76 -92 58z"/>
<path d="M2611 1811 c-12 -8 -15 -37 -15 -138 -1 -119 -3 -132 -29 -188 -15
-33 -45 -77 -65 -98 -43 -44 -34 -58 28 -47 34 6 56 18 104 54 8 5 25 -5 48
-28 44 -44 78 -47 107 -10 12 15 21 30 21 33 0 4 -18 15 -40 25 -21 9 -51 31
-66 48 -25 30 -26 35 -19 107 11 116 7 180 -13 215 -19 33 -38 41 -61 27z"/>
<path d="M2890 1751 c-5 -11 -10 -28 -10 -38 0 -23 -44 -118 -60 -128 -7 -4
-11 -1 -9 6 5 41 -4 80 -28 117 -15 23 -31 42 -35 42 -5 0 -8 -15 -9 -32 0
-18 -8 -64 -19 -103 -19 -74 -14 -95 22 -95 16 0 17 -3 8 -20 -10 -19 -9 -20
17 -14 86 20 185 138 185 221 0 56 -40 84 -62 44z"/>
<path d="M2516 1728 c-3 -13 -6 -33 -6 -46 0 -12 -8 -46 -19 -76 -16 -47 -17
-56 -4 -80 21 -41 54 -32 72 19 15 46 3 149 -22 185 l-14 21 -7 -23z"/>
<path d="M3141 1407 c-11 -19 -62 -73 -111 -121 -87 -84 -92 -87 -110 -71 -16
15 -33 16 -129 10 -118 -8 -121 -7 -102 40 13 32 -6 45 -66 45 -47 0 -53 -2
-45 -16 17 -31 -17 -137 -64 -199 -26 -34 -26 -35 -5 -35 29 0 71 22 100 54
15 16 35 26 53 26 l28 0 0 -105 c0 -98 -2 -106 -25 -129 -14 -14 -25 -36 -25
-50 0 -27 33 -56 63 -56 24 0 109 81 148 141 17 27 33 49 35 49 6 0 -8 -61
-26 -117 -17 -51 -17 -53 1 -53 33 0 79 52 103 118 l22 63 32 -40 c18 -22 32
-44 32 -50 0 -5 -16 -31 -36 -56 -19 -26 -33 -49 -30 -52 10 -10 75 8 108 31
32 21 36 22 65 8 48 -23 87 -2 134 71 59 91 51 110 -23 57 -47 -34 -83 -40
-75 -12 3 9 15 43 26 74 20 55 44 188 36 196 -2 2 -42 -1 -90 -8 -47 -8 -87
-11 -90 -8 -3 2 23 24 56 49 63 45 99 86 99 111 0 14 -31 47 -57 62 -6 3 -20
-8 -32 -27z m-326 -279 c-18 -61 -18 -69 1 -62 11 4 34 18 52 31 l32 24 0 -51
0 -50 -56 -25 c-31 -14 -60 -25 -65 -25 -5 0 -9 38 -9 84 0 72 3 85 18 89 32
9 34 7 27 -15z m335 -19 c0 -21 -39 -119 -47 -119 -3 0 -29 15 -59 33 -49 29
-53 35 -54 70 l0 37 80 0 c74 0 80 -2 80 -21z"/>
<path d="M3820 495 c-14 -8 -20 -14 -14 -15 5 0 19 7 30 15 24 18 16 19 -16 0z"/>
</g>
</svg>
